<?xml version="1.0" encoding="UTF-8"?>
<svg version="1.1" xmlns="http://www.w3.org/2000/svg" width="496" height="229">
<path d="M0 0 C163.68 0 327.36 0 496 0 C496 75.57 496 151.14 496 229 C332.32 229 168.64 229 0 229 C0 153.43 0 77.86 0 0 Z " fill="#F4F2EE" transform="translate(0,0)"/>
<path d="M0 0 C25.74 0 51.48 0 78 0 C76.35 4.62 74.7 9.24 73 14 C69.28740492 38.39393353 77.69165162 69.06162278 83.5 92.8125 C83.71648193 93.7099292 83.93296387 94.6073584 84.15600586 95.53198242 C85.43849479 100.81211363 86.77247848 106.07116848 88.27734375 111.29296875 C88.83536006 113.38326769 89.31201123 115.49539063 89.75390625 117.61328125 C92.33696415 129.77574234 97.24281666 142.85439321 106 152 C109.56191578 152.40814405 109.56191578 152.40814405 113 151 C121.86456323 140.69794003 119.59245733 125.68342335 119 113 C118.57944608 107.83473514 117.45841056 102.97114137 116 98 C115.7848877 97.26668457 115.56977539 96.53336914 115.34814453 95.77783203 C111.64119551 83.41378551 106.89707248 71.48513493 101.90820312 59.58886719 C96.50381435 46.65332658 92.83208068 35.18766052 92.625 21.125 C92.56892578 19.69220703 92.56892578 19.69220703 92.51171875 18.23046875 C92.43003487 11.61407445 93.55014757 7.03515119 98 2 C101.64381288 -0.42920859 103.33612445 -0.24285565 107.67456055 -0.22705078 C108.347995 -0.22734283 109.02142944 -0.22763489 109.715271 -0.22793579 C111.93921839 -0.22654344 114.16282995 -0.21098703 116.38671875 -0.1953125 C117.92942624 -0.19158203 119.4721361 -0.18873522 121.0148468 -0.18673706 C125.07388864 -0.17910329 129.1327872 -0.15945706 133.19177246 -0.1373291 C137.3342088 -0.11686512 141.4766683 -0.10773416 145.61914062 -0.09765625 C153.74615948 -0.07621088 161.87306191 -0.04207808 170 0 C169.20444702 1.53346069 169.20444702 1.53346069 168.39282227 3.09790039 C164.3082075 11.05759587 160.62663668 18.88108751 157.9375 27.4375 C157.60935303 28.45424805 157.28120605 29.47099609 156.94311523 30.51855469 C146.66874416 62.76488242 138.81666255 95.76566301 132.23329163 128.94343567 C131.30190934 133.59916023 130.28875443 138.2298812 129.234375 142.859375 C128.95295654 144.10783203 128.67153809 145.35628906 128.3815918 146.64257812 C127.85855839 148.94610769 127.32464964 151.24721293 126.77661133 153.54492188 C123.83545619 166.62391222 125.09241538 177.64690765 127 191 C99.28 191 71.56 191 43 191 C43.99 188.03 43.99 188.03 45 185 C49.99070662 148.30362781 33.77207471 102.15905731 24 67 C23.79294434 66.24879883 23.58588867 65.49759766 23.37255859 64.72363281 C14.34874704 31.31917914 14.34874704 31.31917914 0 0 Z " fill="#020202" transform="translate(4,7)"/>
<path d="M0 0 C1.80205229 1.80205229 1.22563002 4.55312936 1.29711914 6.98852539 C1.33708511 8.26977798 1.37705109 9.55103058 1.41822815 10.87110901 C1.4573068 12.27995525 1.49628033 13.6888044 1.53515625 15.09765625 C1.57814649 16.53113553 1.62156294 17.96460209 1.66539001 19.39805603 C1.7797914 23.17746507 1.88837982 26.95701993 1.99578857 30.7366333 C2.10633537 34.59080229 2.22233742 38.44480656 2.33789062 42.29882812 C2.56395552 49.86573422 2.78388422 57.43280252 3 65 C3.47050781 64.59007812 3.94101562 64.18015625 4.42578125 63.7578125 C5.04839844 63.21898437 5.67101562 62.68015625 6.3125 62.125 C6.92738281 61.59132812 7.54226563 61.05765625 8.17578125 60.5078125 C11.76744767 57.53911177 15.0869626 56.18908937 19.5 54.8125 C20.6446875 54.44769531 21.789375 54.08289063 22.96875 53.70703125 C26 53 26 53 29 54 C28.236875 54.556875 27.47375 55.11375 26.6875 55.6875 C22.81949129 59.01578656 21.17102457 61.45742548 20.6015625 66.59375 C20.60929688 67.8828125 20.61703125 69.171875 20.625 70.5 C20.61726562 71.7890625 20.60953125 73.078125 20.6015625 74.40625 C21.12650449 79.14102085 22.67872175 81.67872175 26 85 C28.31 85 30.62 85 33 85 C33 73.78 33 62.56 33 51 C36.96 49.35 40.92 47.7 45 46 C49.99216906 42.73150183 49.99216906 42.73150183 50.875 39.5 C50.99669295 37.06614092 50.76681968 35.30045905 50 33 C53.2542015 35.83430453 54.5206753 37.68607774 55 42 C55.17892795 38.06358515 55.15795055 35.35681196 53 32 C52.01 31.01 52.01 31.01 51 30 C59.40106227 27.42824624 67.24242325 26.87449333 76 27 C78.98452539 27.18569534 78.98452539 27.18569534 81.5 26 C89.48712951 23.717963 96.53706044 24.59585213 104 28 C104.763125 28.28875 105.52625 28.5775 106.3125 28.875 C109.40519968 30.93679979 110.71612449 33.82574501 111.57217407 37.36680603 C111.98350577 39.89848087 112.13721276 42.25639895 112.15771484 44.81860352 C112.17310806 46.2101339 112.17310806 46.2101339 112.18881226 47.629776 C112.19611359 48.61948898 112.20341492 49.60920197 112.2109375 50.62890625 C112.23899012 52.7363361 112.26765446 54.84375789 112.296875 56.95117188 C112.33822573 60.26489165 112.37512636 63.57845804 112.40136719 66.89233398 C112.42892177 70.09650457 112.47477258 73.29999616 112.5234375 76.50390625 C112.5283168 77.99151207 112.5283168 77.99151207 112.53329468 79.50917053 C112.55814438 80.89597267 112.55814438 80.89597267 112.58349609 82.31079102 C112.59158295 83.1217775 112.5996698 83.93276398 112.60800171 84.76832581 C112.91758555 87.51865563 112.91758555 87.51865563 116 91 C106.1 91 96.2 91 86 91 C87.485 88.525 87.485 88.525 89 86 C89.43377961 83.85949878 89.43377961 83.85949878 89.36889648 81.68798828 C89.37577988 80.8700882 89.38266327 80.05218811 89.38975525 79.20950317 C89.38051781 77.90310379 89.38051781 77.90310379 89.37109375 76.5703125 C89.38847715 74.70442526 89.40606152 72.83853988 89.42382812 70.97265625 C89.43389064 68.04765355 89.4374987 65.12277318 89.43579102 62.19775391 C89.43937417 59.36324091 89.46676493 56.52965892 89.49609375 53.6953125 C89.48791122 52.82842804 89.4797287 51.96154358 89.47129822 51.06838989 C89.55338323 44.32687493 91.11045348 39.88954652 96 35 C95.67 33.35 95.34 31.7 95 30 C88.73 30 82.46 30 76 30 C76.18712061 37.88454758 76.39931503 45.76787039 76.63476562 53.65112305 C76.71348739 56.33293808 76.78267946 59.01474783 76.84375 61.69702148 C76.93509228 65.55266497 77.05106786 69.4068999 77.171875 73.26171875 C77.19497742 74.46084396 77.21807983 75.65996918 77.24188232 76.89543152 C77.2816217 78.01621597 77.32136108 79.13700043 77.36230469 80.29174805 C77.38895203 81.27547897 77.41559937 82.2592099 77.4430542 83.27275085 C77.92371863 86.68334431 77.92371863 86.68334431 82 91 C66.16 91 50.32 91 34 91 C33.67 90.01 33.34 89.02 33 88 C32.01515625 88.48984375 31.0303125 88.9796875 30.015625 89.484375 C25.8595731 91.26314847 22.21749114 91.38335794 17.75 91.25 C16.69039063 91.24226563 16.69039063 91.24226563 15.609375 91.234375 C12.49010419 91.18711332 9.97694713 90.99231571 7 90 C1.93454724 89.74243461 -2.05216484 90.1854521 -6.90234375 91.5546875 C-10.57691573 92.33476423 -14.26386312 92.15567237 -18 92 C-18.66 90.68 -19.32 89.36 -20 88 C-20.5775 88.474375 -21.155 88.94875 -21.75 89.4375 C-26.61577259 92.81650874 -32.28603523 92.34389603 -38 92 C-43.07416789 91.00180304 -46.37720041 89.71569188 -50 86 C-52.14858014 82.74643578 -54.10743824 79.4079119 -56 76 C-56.02708567 77.60407328 -56.04643483 79.2082785 -56.0625 80.8125 C-56.07410156 81.70582031 -56.08570313 82.59914063 -56.09765625 83.51953125 C-55.96355664 86.92566131 -55.42581871 88.57418129 -53 91 C-62.57 91 -72.14 91 -82 91 C-81.01 89.35 -80.02 87.7 -79 86 C-78.57263415 83.87342646 -78.57263415 83.87342646 -78.64697266 81.71972656 C-78.64148911 80.50255951 -78.64148911 80.50255951 -78.63589478 79.26080322 C-78.64519012 78.39614441 -78.65448547 77.5314856 -78.6640625 76.640625 C-78.65154552 74.7838507 -78.6385082 72.92707985 -78.625 71.0703125 C-78.62108041 68.1629601 -78.62496995 65.25595208 -78.63964844 62.34863281 C-78.64827769 59.5287861 -78.62643523 56.71034794 -78.6015625 53.890625 C-78.61490631 53.03406311 -78.62825012 52.17750122 -78.64199829 51.29498291 C-78.57286416 45.57509475 -77.29013918 41.91132689 -74.17025757 37.10931396 C-72.66655447 34.65109854 -72.66655447 34.65109854 -72 30 C-78.6 30 -85.2 30 -92 30 C-91.93108992 37.43848099 -91.84310438 44.87640171 -91.73754883 52.31445312 C-91.70432486 54.84401225 -91.67628511 57.37364505 -91.65356445 59.90332031 C-91.61997296 63.54263667 -91.56765246 67.18127934 -91.51171875 70.8203125 C-91.50532883 71.94865509 -91.4989389 73.07699768 -91.49235535 74.23953247 C-91.38645523 79.91406514 -91.17693966 84.09345513 -88 89 C-87.67 89.66 -87.34 90.32 -87 91 C-102.51 91 -118.02 91 -134 91 C-134.33 90.01 -134.66 89.02 -135 88 C-135.78503906 88.3609375 -136.57007813 88.721875 -137.37890625 89.09375 C-149.75797684 94.56180572 -149.75797684 94.56180572 -156.50390625 92.078125 C-162.02527884 89.60274981 -165.28317136 87.43365728 -168 82 C-169.69370644 76.91888069 -169.67736992 71.83844493 -167.390625 66.90625 C-163.88785355 62.10469812 -158.31661268 57.65830634 -153 55 C-153 55.66 -153 56.32 -153 57 C-152.15695313 56.69964844 -151.31390625 56.39929688 -150.4453125 56.08984375 C-149.34960938 55.70957031 -148.25390625 55.32929688 -147.125 54.9375 C-145.48917969 54.36322266 -145.48917969 54.36322266 -143.8203125 53.77734375 C-141 53 -141 53 -139 54 C-139.48210937 54.36351562 -139.96421875 54.72703125 -140.4609375 55.1015625 C-144.57364038 58.37493826 -147.0693046 60.6226488 -148 66 C-148.7423172 72.99899079 -147.85821569 78.06547546 -144 84 C-143.505 84.495 -143.505 84.495 -143 85 C-140.69 85 -138.38 85 -136 85 C-135.67 73.78 -135.34 62.56 -135 51 C-130.38 48.69 -125.76 46.38 -121 44 C-117.85714552 41.45671716 -117.85714552 41.45671716 -117.70703125 38.95703125 C-117.75923828 37.89548828 -117.75923828 37.89548828 -117.8125 36.8125 C-117.874375 35.554375 -117.93625 34.29625 -118 33 C-115 35 -115 35 -114 38 C-114.54723683 34.62537285 -115.0549 32.91765 -117 30 C-110.13097426 27.54677652 -103.96562975 26.86784561 -96.75 27 C-91.72710487 27.30429917 -91.72710487 27.30429917 -87 26 C-83.94460756 25.7092585 -80.88012769 25.72207131 -77.8125 25.6875 C-76.97396484 25.65849609 -76.13542969 25.62949219 -75.27148438 25.59960938 C-69.31181338 25.53912872 -65.83882255 26.45651218 -61 30 C-59.4765625 31.9296875 -59.4765625 31.9296875 -58.625 33.875 C-58.32335937 34.56335938 -58.02171875 35.25171875 -57.7109375 35.9609375 C-56.78592945 38.61398256 -56.27924125 41.20758751 -56 44 C-55.67128906 43.443125 -55.34257812 42.88625 -55.00390625 42.3125 C-50.98795447 35.86956381 -45.93739004 29.46869502 -39 26 C-36.11629667 25.92805131 -33.25760336 25.90708292 -30.375 25.9375 C-29.17230469 25.94426758 -29.17230469 25.94426758 -27.9453125 25.95117188 C-25.96350994 25.96296832 -23.98174567 25.98090395 -22 26 C-22 26.99 -22 27.98 -22 29 C-23.0725 29.391875 -24.145 29.78375 -25.25 30.1875 C-30.79608767 32.6313495 -32.93055043 36.42793028 -35.25 41.875 C-39.22133498 53.53785334 -37.57562404 66.20817147 -33.00390625 77.44921875 C-31.3852506 80.56891148 -30.1703616 82.60090339 -26.75048828 83.76708984 C-25.94853027 83.91355957 -25.14657227 84.0600293 -24.3203125 84.2109375 C-23.51094238 84.3661084 -22.70157227 84.5212793 -21.86767578 84.68115234 C-21.25134277 84.78637207 -20.63500977 84.8915918 -20 85 C-20.06115889 74.88169504 -20.13822706 64.76364913 -20.23571491 54.64562511 C-20.2804784 49.94760534 -20.31972118 45.2496735 -20.34643555 40.55151367 C-20.3724091 36.01910335 -20.41276885 31.4870303 -20.46318626 26.95482826 C-20.47989537 25.2240855 -20.49138441 23.49328436 -20.49761391 21.76247215 C-20.50721132 19.34153097 -20.53521671 16.92146051 -20.56762695 14.50073242 C-20.56619186 13.78216064 -20.56475677 13.06358887 -20.5632782 12.32324219 C-20.60440061 8.42451966 -20.60440061 8.42451966 -22.52702332 5.15620422 C-23.01310562 4.77465683 -23.49918793 4.39310944 -24 4 C-24 3.34 -24 2.68 -24 2 C-16.02237778 0.57950129 -8.12380667 -0.66664826 0 0 Z " fill="#292929" transform="translate(309,90)"/>
<path d="M0 0 C2.85142354 3.14238512 3.72061191 5.63851271 3.53515625 9.9765625 C2.4737821 13.98964142 -0.5993312 15.91013445 -4 18 C-11.62732919 22 -11.62732919 22 -15 22 C-14.99214478 23.53708618 -14.99214478 23.53708618 -14.98413086 25.10522461 C-14.96608031 28.89395276 -14.9545678 32.68267709 -14.94506836 36.47143555 C-14.94002826 38.11369464 -14.93319622 39.75594923 -14.92456055 41.39819336 C-14.91248074 43.75375479 -14.90676861 46.10925709 -14.90234375 48.46484375 C-14.89718246 49.20339096 -14.89202118 49.94193817 -14.88670349 50.7028656 C-14.8865075 52.46898088 -14.93805281 54.23497146 -15 56 C-16 57 -16 57 -19.3125 57.375 C-23 57 -23 57 -25.3125 54.8125 C-28.92048906 48.79918491 -29.69876383 43.97672016 -29 37 C-27.35958209 31.73339512 -25.10087369 28.657536 -21 25 C-21.61488281 25.2165625 -22.22976562 25.433125 -22.86328125 25.65625 C-23.67152344 25.9346875 -24.47976562 26.213125 -25.3125 26.5 C-26.11300781 26.7784375 -26.91351563 27.056875 -27.73828125 27.34375 C-30 28 -30 28 -33 28 C-33 27.34 -33 26.68 -33 26 C-34.5778125 25.938125 -34.5778125 25.938125 -36.1875 25.875 C-40.08773947 24.97986307 -41.75824002 24.05655001 -44.12109375 20.8125 C-45.79486566 17.36081037 -45.48265329 14.80089464 -45 11 C-42.63773141 4.94668673 -36.32353044 -0.2129658 -30.5 -2.9375 C-21.1595606 -5.89099863 -8.2695491 -5.45689187 0 0 Z " fill="#ECEAE6" transform="translate(189,119)"/>
<path d="M0 0 C3.77799766 3.26281616 6.69541719 6.21411857 7.2515564 11.3008728 C7.25281525 12.14437286 7.2540741 12.98787292 7.25537109 13.85693359 C7.26233002 14.81828217 7.26928894 15.77963074 7.27645874 16.77011108 C7.27546173 17.8024588 7.27446472 18.83480652 7.2734375 19.8984375 C7.29372642 22.09115094 7.31457721 24.28385924 7.3359375 26.4765625 C7.35853726 29.92842958 7.37500863 33.38009358 7.38085938 36.83203125 C7.39038797 40.16703875 7.42417055 43.50113452 7.4609375 46.8359375 C7.45589203 47.86423676 7.45084656 48.89253601 7.44564819 49.95199585 C7.45891144 50.91964874 7.47217468 51.88730164 7.48583984 52.88427734 C7.48868988 53.72936859 7.49153992 54.57445984 7.49447632 55.44515991 C7.99251155 58.81783034 7.99251155 58.81783034 12 64 C2.43 64 -7.14 64 -17 64 C-16.34 63.01 -15.68 62.02 -15 61 C-14.71472346 59.03306581 -14.71472346 59.03306581 -14.77636719 56.87084961 C-14.77586365 56.04246078 -14.77536011 55.21407196 -14.77484131 54.36058044 C-14.78211243 53.46686234 -14.78938354 52.57314423 -14.796875 51.65234375 C-14.78631802 49.74804008 -14.7745601 47.84374276 -14.76171875 45.93945312 C-14.75144758 42.94638606 -14.74988762 39.95420688 -14.77001953 36.96118164 C-14.87404133 16.73229742 -14.87404133 16.73229742 -9.28613281 9.90454102 C-7.53363123 7.69241036 -7.53363123 7.69241036 -8 3 C-13.94 3 -19.88 3 -26 3 C-19.4784112 -3.5215888 -8.18658132 -4.19312702 0 0 Z " fill="#2B2B2B" transform="translate(447,117)"/>
<path d="M0 0 C-3.81211579 1.9060579 -8.64936226 1.41795202 -12.87890625 1.60546875 C-17.07362988 1.7104186 -17.07362988 1.7104186 -21 3 C-20.52449439 4.48034764 -20.04448784 5.95925021 -19.5625 7.4375 C-19.29566406 8.26121094 -19.02882812 9.08492187 -18.75390625 9.93359375 C-18.17844506 11.96219588 -18.17844506 11.96219588 -17 13 C-16.41031941 20.07616708 -16.41031941 20.07616708 -18.875 23.9375 C-22.52108968 27.47635175 -25.58093292 27.46656527 -30.51171875 27.40234375 C-33.23967462 26.96124571 -34.2524209 26.49130169 -36.125 24.5 C-38.53196754 20.00699393 -38.63936996 18.03503846 -38 13 C-35.63773141 6.94668673 -29.32353044 1.7870342 -23.5 -0.9375 C-16.97353982 -3.05631072 -5.79519744 -3.86346496 0 0 Z " fill="#353535" transform="translate(182,117)"/>
<path d="M0 0 C0 0.66 0 1.32 0 2 C-0.82113281 1.83757812 -1.64226562 1.67515625 -2.48828125 1.5078125 C-6.40756835 0.94106353 -10.23833748 0.85316131 -14.1875 0.875 C-14.89841797 0.87113281 -15.60933594 0.86726563 -16.34179688 0.86328125 C-19.49561884 0.86921506 -21.98669395 0.99556465 -25 2 C-25.42116585 6.23491159 -25.42116585 6.23491159 -23.5 9.8125 C-21.43925662 12.81775076 -21.38899104 15.21264877 -21.53125 18.8046875 C-22.16295235 21.76316017 -23.5915128 23.48578189 -26.08203125 25.18359375 C-29.71647537 26.73063819 -33.17001233 26.93201221 -37 26 C-40.45539636 22.71737346 -41.85366018 20.0609637 -42.5 15.375 C-42.42234698 10.62090933 -40.3660833 8.15847625 -37.140625 4.828125 C-27.20751305 -3.65489761 -11.68788158 -6.84168678 0 0 Z " fill="#2A2A2A" transform="translate(355,118)"/>
<path d="M0 0 C0.66 0.33 1.32 0.66 2 1 C2.02465288 5.68139254 2.04283739 10.36274759 2.05493164 15.04418945 C2.05997157 16.63794614 2.0668035 18.23169819 2.07543945 19.82543945 C2.08751999 22.11150253 2.09323155 24.39750467 2.09765625 26.68359375 C2.10281754 27.40026718 2.10797882 28.11694061 2.11329651 28.85533142 C2.11349263 30.57063672 2.06192007 32.28581266 2 34 C1 35 1 35 -2.25 35.375 C-6 35 -6 35 -8.875 32.6875 C-13.49919407 26.83925455 -12.79768703 19.09793739 -12 12 C-10.48548039 8.73611438 -8.60116177 6.45559798 -6 4 C-5.50113281 3.45859375 -5.00226563 2.9171875 -4.48828125 2.359375 C-3 1 -3 1 0 0 Z " fill="#EBE9E6" transform="translate(341,141)"/>
<path d="M0 0 C5.45454545 0.45454545 5.45454545 0.45454545 8 3 C8.66 2.01 9.32 1.02 10 0 C15.75 0.75 15.75 0.75 18 3 C18.46376812 10.30434783 18.46376812 10.30434783 16 14 C11.94554358 14.43132515 10.45029042 14.30019361 7 12 C6.34 12.66 5.68 13.32 5 14 C2.5 14.25 2.5 14.25 0 14 C-2 12 -2 12 -2.265625 9.6875 C-2.26046875 8.800625 -2.2553125 7.91375 -2.25 7 C-2.25515625 6.113125 -2.2603125 5.22625 -2.265625 4.3125 C-2 2 -2 2 0 0 Z " fill="#7D7D7B" transform="translate(440,211)"/>
<path d="M0 0 C0.2475 0.53625 0.495 1.0725 0.75 1.625 C1.1625 2.40875 1.575 3.1925 2 4 C2.474375 5.0725 2.94875 6.145 3.4375 7.25 C5.69033336 10.24564556 5.69033336 10.24564556 8.70703125 10.3828125 C11.49455667 10.37565582 14.22513745 10.25834927 17 10 C17 10.99 17 11.98 17 13 C15.205625 13.61875 15.205625 13.61875 13.375 14.25 C7.93945347 16.28592909 3.60587927 19.53574893 -1 23 C-1.02902429 19.72918529 -1.04680684 16.4584037 -1.0625 13.1875 C-1.07087891 12.25873047 -1.07925781 11.32996094 -1.08789062 10.37304688 C-1.09111328 9.48037109 -1.09433594 8.58769531 -1.09765625 7.66796875 C-1.10289307 6.84578857 -1.10812988 6.0236084 -1.11352539 5.17651367 C-1 3 -1 3 0 0 Z " fill="#EAE8E4" transform="translate(312,133)"/>
<path d="M0 0 C2.4375 0.8125 2.4375 0.8125 4.4375 2.8125 C4.90126812 10.11684783 4.90126812 10.11684783 2.4375 13.8125 C-0.625 14.0625 -0.625 14.0625 -3.5625 13.8125 C-5.20365013 12.17134987 -5.03821189 10.19058091 -5.3125 7.9375 C-5.43109375 7.05320313 -5.5496875 6.16890625 -5.671875 5.2578125 C-5.5625 2.8125 -5.5625 2.8125 -4.23828125 0.98046875 C-2.5625 -0.1875 -2.5625 -0.1875 0 0 Z " fill="#DCDAD7" transform="translate(432.5625,211.1875)"/>
<path d="M0 0 C5 3 5 3 7 6 C7.66 4.02 8.32 2.04 9 0 C9.66 0 10.32 0 11 0 C11 4.62 11 9.24 11 14 C7 13 7 13 4.75 9.9375 C4.1725 8.968125 3.595 7.99875 3 7 C2.01 10.465 2.01 10.465 1 14 C0.67 14 0.34 14 0 14 C0 9.38 0 4.76 0 0 Z " fill="#3F3F3E" transform="translate(420,191)"/>
<path d="M0 0 C2.01822917 0.06510417 4.03645833 0.13020833 6.0546875 0.1953125 C6.7146875 1.5153125 7.3746875 2.8353125 8.0546875 4.1953125 C5.0846875 3.8653125 2.1146875 3.5353125 -0.9453125 3.1953125 C-0.9453125 5.8353125 -0.9453125 8.4753125 -0.9453125 11.1953125 C2.67997318 11.39671726 4.91970458 11.05308015 8.0546875 9.1953125 C7.1796875 13.0703125 7.1796875 13.0703125 6.0546875 14.1953125 C0.31857639 14.46846065 0.31857639 14.46846065 -1.9453125 14.1953125 C-3.9453125 12.1953125 -3.9453125 12.1953125 -4.2109375 9.8828125 C-4.20578125 8.9959375 -4.200625 8.1090625 -4.1953125 7.1953125 C-4.20046875 6.3084375 -4.205625 5.4215625 -4.2109375 4.5078125 C-3.86856015 1.52711553 -3.08114197 0.3093516 0 0 Z " fill="#404040" transform="translate(436.9453125,190.8046875)"/>
<path d="M0 0 C0 0.66 0 1.32 0 2 C-0.825 1.83757812 -1.65 1.67515625 -2.5 1.5078125 C-6.35451104 0.94856425 -10.11604359 0.85309799 -14 0.875 C-14.68578125 0.87113281 -15.3715625 0.86726563 -16.078125 0.86328125 C-19.27543138 0.86938298 -22.22761121 1.0426771 -25.375 1.6328125 C-26.24125 1.75398438 -27.1075 1.87515625 -28 2 C-28.66 1.34 -29.32 0.68 -30 0 C-20.84560414 -4.48378573 -8.9826707 -5.2581487 0 0 Z " fill="#807F7E" transform="translate(355,118)"/>
<path d="M0 0 C2.64 0 5.28 0 8 0 C8.66 1.32 9.32 2.64 10 4 C7.36 3.34 4.72 2.68 2 2 C4.48952921 4.66735273 6.63408134 6.55746343 10 8 C9.125 12.875 9.125 12.875 8 14 C4.5625 14.1875 4.5625 14.1875 1 14 C0.34 13.34 -0.32 12.68 -1 12 C-1 11.01 -1 10.02 -1 9 C-0.34 9 0.32 9 1 9 C1 9.99 1 10.98 1 12 C2.98 12 4.96 12 7 12 C7 11.01 7 10.02 7 9 C6.05125 8.71125 5.1025 8.4225 4.125 8.125 C1 7 1 7 -1 5 C-0.625 2.375 -0.625 2.375 0 0 Z " fill="#545453" transform="translate(403,191)"/>
<path d="M0 0 C3.63 0 7.26 0 11 0 C11 0.66 11 1.32 11 2 C8.03 2 5.06 2 2 2 C2 3.32 2 4.64 2 6 C4.64 6 7.28 6 10 6 C10 6.66 10 7.32 10 8 C7.36 8 4.72 8 2 8 C2 9.32 2 10.64 2 12 C4.97 12 7.94 12 11 12 C11 12.66 11 13.32 11 14 C7.37 14 3.74 14 0 14 C0 9.38 0 4.76 0 0 Z " fill="#4C4C4B" transform="translate(447,191)"/>
<path d="M0 0 C2.875 -0.125 2.875 -0.125 6 0 C6.66 0.66 7.32 1.32 8 2 C7.77870194 4.87687481 7.36521506 6.53951144 5.5625 8.8125 C4 10 4 10 2 10 C2 10.66 2 11.32 2 12 C3.98 12 5.96 12 8 12 C8 12.66 8 13.32 8 14 C5.03 14 2.06 14 -1 14 C0.32787786 10.01636642 2.00985195 7.89369166 5 5 C5.33 4.01 5.66 3.02 6 2 C5.21625 2.495 4.4325 2.99 3.625 3.5 C1 5 1 5 -1 5 C-0.67 3.35 -0.34 1.7 0 0 Z " fill="#595858" transform="translate(418,211)"/>
<path d="M0 0 C0.72445312 -0.01224609 1.44890625 -0.02449219 2.1953125 -0.03710938 C6.00700298 -0.04765833 7.7536304 0.0232536 11 2.1875 C8.76352369 3.30573815 7.35108471 3.38146061 4.8671875 3.50390625 C4.06152344 3.54580078 3.25585938 3.58769531 2.42578125 3.63085938 C1.58402344 3.67017578 0.74226562 3.70949219 -0.125 3.75 C-0.97449219 3.79318359 -1.82398438 3.83636719 -2.69921875 3.88085938 C-4.79928223 3.98704236 -6.89961948 4.08778497 -9 4.1875 C-9 3.5275 -9 2.8675 -9 2.1875 C-9.66 1.8575 -10.32 1.5275 -11 1.1875 C-7.30054001 -0.04565333 -3.85232442 0.00342733 0 0 Z " fill="#3D3D3C" transform="translate(171,114.8125)"/>
<path d="M0 0 C2.4375 0.8125 2.4375 0.8125 4.4375 2.8125 C4.90126812 10.11684783 4.90126812 10.11684783 2.4375 13.8125 C-0.625 14.0625 -0.625 14.0625 -3.5625 13.8125 C-5.20365013 12.17134987 -5.03821189 10.19058091 -5.3125 7.9375 C-5.43109375 7.05320313 -5.5496875 6.16890625 -5.671875 5.2578125 C-5.5625 2.8125 -5.5625 2.8125 -4.23828125 0.98046875 C-2.5625 -0.1875 -2.5625 -0.1875 0 0 Z M-2.5625 1.8125 C-4.46135096 3.71135096 -3.68617506 6.38497903 -3.6953125 8.90234375 C-3.67936861 10.89884367 -3.67936861 10.89884367 -2.5625 12.8125 C-0.9125 12.1525 0.7375 11.4925 2.4375 10.8125 C2.4375 8.1725 2.4375 5.5325 2.4375 2.8125 C0.78135343 2.43031233 -0.88707024 2.09854898 -2.5625 1.8125 Z " fill="#585856" transform="translate(432.5625,211.1875)"/>
<path d="M0 0 C5.75 0.75 5.75 0.75 8 3 C8.46376812 10.30434783 8.46376812 10.30434783 6 14 C2.875 14.1875 2.875 14.1875 0 14 C0 13.34 0 12.68 0 12 C1.32 12.33 2.64 12.66 4 13 C4.33 11.68 4.66 10.36 5 9 C4.34 9 3.68 9 3 9 C3 8.34 3 7.68 3 7 C3.66 7 4.32 7 5 7 C5 5.35 5 3.7 5 2 C3.35 2 1.7 2 0 2 C0 1.34 0 0.68 0 0 Z " fill="#51514F" transform="translate(450,211)"/>
<path d="M0 0 C1.98 0.495 1.98 0.495 4 1 C4 3.97 4 6.94 4 10 C2.35 10.33 0.7 10.66 -1 11 C-1.02688151 9.35425434 -1.04634123 7.70838587 -1.0625 6.0625 C-1.07410156 5.14597656 -1.08570313 4.22945312 -1.09765625 3.28515625 C-1 1 -1 1 0 0 Z " fill="#E3E1DD" transform="translate(441,213)"/>
<path d="M0 0 C0.66 0.33 1.32 0.66 2 1 C2 3.97 2 6.94 2 10 C-0.86177057 11.43088528 -2.93375773 10.59991697 -6 10 C-6 9.34 -6 8.68 -6 8 C-5.195625 7.38125 -4.39125 6.7625 -3.5625 6.125 C-0.96935871 3.97459015 -0.34779165 3.24605542 0 0 Z " fill="#E4E2DE" transform="translate(426,213)"/>
<path d="M0 0 C2.05078125 0.03255208 4.1015625 0.06510417 6.15234375 0.09765625 C6.81234375 1.41765625 7.47234375 2.73765625 8.15234375 4.09765625 C5.18234375 3.76765625 2.21234375 3.43765625 -0.84765625 3.09765625 C-1.17765625 5.07765625 -1.50765625 7.05765625 -1.84765625 9.09765625 C-3.84765625 6.09765625 -3.84765625 6.09765625 -3.53515625 3.47265625 C-2.56922244 0.135794 -2.56922244 0.135794 0 0 Z " fill="#4D4D4B" transform="translate(436.84765625,190.90234375)"/>
<path d="M0 0 C0.33 0 0.66 0 1 0 C1.33 3.96 1.66 7.92 2 12 C4.97 12 7.94 12 11 12 C11 12.66 11 13.32 11 14 C7.37 14 3.74 14 0 14 C0 9.38 0 4.76 0 0 Z " fill="#3C3C3B" transform="translate(447,191)"/>
<path d="M0 0 C1.32 0.33 2.64 0.66 4 1 C3.125 5.875 3.125 5.875 2 7 C-1.4375 7.1875 -1.4375 7.1875 -5 7 C-5.66 6.34 -6.32 5.68 -7 5 C-7 4.01 -7 3.02 -7 2 C-6.34 2 -5.68 2 -5 2 C-5 2.99 -5 3.98 -5 5 C-3.02 5 -1.04 5 1 5 C0.67 3.35 0.34 1.7 0 0 Z " fill="#484847" transform="translate(409,198)"/>
<path d="M0 0 C1.65 0 3.3 0 5 0 C5 1.65 5 3.3 5 5 C3.68 5.33 2.36 5.66 1 6 C0.67 4.02 0.34 2.04 0 0 Z " fill="#D9D7D4" transform="translate(450,213)"/>
<path d="M0 0 C2.97 0.99 5.94 1.98 9 3 C9 3.66 9 4.32 9 5 C4.545 4.01 4.545 4.01 0 3 C0 2.01 0 1.02 0 0 Z " fill="#8B8A88" transform="translate(346,115)"/>
<path d="M0 0 C2.64 0.33 5.28 0.66 8 1 C8 1.66 8 2.32 8 3 C5.03 3 2.06 3 -1 3 C-0.67 2.01 -0.34 1.02 0 0 Z " fill="#454443" transform="translate(418,222)"/>
</svg>
