<?xml version="1.0" encoding="UTF-8"?>
<svg version="1.1" xmlns="http://www.w3.org/2000/svg" width="500" height="500">
<path d="M0 0 C165 0 330 0 500 0 C500 165 500 330 500 500 C335 500 170 500 0 500 C0 335 0 170 0 0 Z " fill="#F5F3EF" transform="translate(0,0)"/>
<path d="M0 0 C25.74 0 51.48 0 78 0 C76.68 2.64 75.36 5.28 74 8 C69.89075226 24.43699095 73.96529056 42.70728422 77 59 C77.26094615 60.44382684 77.52082389 61.88784708 77.77978516 63.33203125 C83.32764816 111.49860586 83.32764816 111.49860586 105 152 C108.78163587 152.48129911 111.03006106 152.64662596 114.25 150.5 C122.42531294 138.82098152 121.23846791 121.36161531 119.24047852 107.88305664 C116.33006879 92.95247214 110.52045124 79.01477867 104.65673828 65.05493164 C101.52550677 57.57982143 98.58735187 50.10668808 96.15625 42.37109375 C95.95116821 41.72036392 95.74608643 41.06963409 95.53479004 40.39918518 C92.60712891 30.78563026 90.22510675 16.7060727 94.6875 7.1875 C96.98749972 4.01723011 98.74124222 2.13892501 102 0 C105.22077942 -0.48101807 105.22077942 -0.48101807 108.90161133 -0.45410156 C109.57533783 -0.45468567 110.24906433 -0.45526978 110.94320679 -0.45587158 C113.15668356 -0.45309826 115.36879155 -0.4220454 117.58203125 -0.390625 C119.12187464 -0.38315985 120.66172756 -0.37746821 122.20158386 -0.37347412 C126.24435899 -0.35823912 130.28655459 -0.3189765 134.32910156 -0.2746582 C138.45825359 -0.23365895 142.58749974 -0.21545322 146.71679688 -0.1953125 C154.81146316 -0.15247948 162.90565938 -0.08425485 171 0 C170.51499023 0.75037537 170.02998047 1.50075073 169.53027344 2.27386475 C168.89637695 3.26082336 168.26248047 4.24778198 167.609375 5.26464844 C166.97999023 6.2418988 166.35060547 7.21914917 165.70214844 8.22601318 C153.5444444 28.03939136 149.5889682 54.83012446 143.97753906 77.12939453 C143.0461589 80.81723197 142.09952568 84.50079722 141.1484375 88.18359375 C135.57166768 109.91093244 131.04042693 131.81687107 127.03323364 153.88226318 C126.76515988 155.35499554 126.49431223 156.82722621 126.22042847 158.29888916 C122.7858548 174.07778039 122.7858548 174.07778039 127 189 C127 189.66 127 190.32 127 191 C99.61 191 72.22 191 44 191 C46 185 46 185 47 183 C48.15003918 172.24324252 45.46608054 161.71117846 43.3125 151.25 C42.93923694 149.39722854 42.56684805 147.54428076 42.1953125 145.69116211 C41.29755143 141.22717589 40.38661047 136.76600932 39.47125244 132.30560303 C38.84963369 129.2643327 38.24274892 126.22019165 37.63671875 123.17578125 C32.95981699 99.90917754 27.75323086 76.66120539 20.61425781 54.02001953 C19.68246238 50.95576064 18.90889287 47.85489742 18.125 44.75 C16.34424566 37.99055332 14.27905756 31.33702606 12.125 24.6875 C11.80934082 23.68493164 11.49368164 22.68236328 11.16845703 21.64941406 C8.5259865 13.63847228 4.65817507 6.98726261 0 0 Z " fill="#010101" transform="translate(139,123)"/>
<path d="M0 0 C3.69436253 0.69269297 4.69516533 1.63619186 7 4.5625 C7.49609375 7.40234375 7.49609375 7.40234375 7.4375 10.5 C7.43621094 11.51964844 7.43492187 12.53929687 7.43359375 13.58984375 C6.94356277 16.94942548 6.0419061 18.86564288 4 21.5625 C1.0625 22.625 1.0625 22.625 -2 22.5625 C-4.88642473 20.37817858 -5.85101198 19.00946406 -7 15.5625 C-7.50041139 10.72245541 -7.64836352 6.80935293 -5.375 2.4375 C-3 0.5625 -3 0.5625 0 0 Z " fill="#2E2D2D" transform="translate(243,352.4375)"/>
<path d="M0 0 C3.69436253 0.69269297 4.69516533 1.63619186 7 4.5625 C7.49609375 7.40234375 7.49609375 7.40234375 7.4375 10.5 C7.43621094 11.51964844 7.43492187 12.53929687 7.43359375 13.58984375 C6.94356277 16.94942548 6.0419061 18.86564288 4 21.5625 C1.0625 22.625 1.0625 22.625 -2 22.5625 C-4.88642473 20.37817858 -5.85101198 19.00946406 -7 15.5625 C-7.50041139 10.72245541 -7.64836352 6.80935293 -5.375 2.4375 C-3 0.5625 -3 0.5625 0 0 Z " fill="#2E2D2D" transform="translate(227,352.4375)"/>
<path d="M0 0 C2.375 1.3125 2.375 1.3125 4 4 C4.69104372 9.04694853 4.70635669 13.46444198 2.5625 18.125 C1 20 1 20 0 21 C-6.33841463 21.4695122 -6.33841463 21.4695122 -8.9375 19.625 C-10 18 -10 18 -10 16 C-9.01 16 -8.02 16 -7 16 C-6.67 16.66 -6.34 17.32 -6 18 C-4.35 18 -2.7 18 -1 18 C-0.34 16.35 0.32 14.7 1 13 C-0.0725 13.2475 -1.145 13.495 -2.25 13.75 C-6 14 -6 14 -8.4375 12.4375 C-10.44543026 9.30512879 -10.60975382 7.65852292 -10 4 C-7.21921757 -0.06422047 -4.81255755 -0.80209293 0 0 Z " fill="#303030" transform="translate(262,353)"/>
<path d="M0 0 C5.28 0 10.56 0 16 0 C16 0.99 16 1.98 16 3 C11.71 3 7.42 3 3 3 C3 5.31 3 7.62 3 10 C6.96 10 10.92 10 15 10 C15 10.66 15 11.32 15 12 C11.37 12 7.74 12 4 12 C4 14.31 4 16.62 4 19 C8.29 19 12.58 19 17 19 C17 19.99 17 20.98 17 22 C11.39 22 5.78 22 0 22 C0 14.74 0 7.48 0 0 Z " fill="#424141" transform="translate(250,322)"/>
<path d="M0 0 C1.32 0 2.64 0 4 0 C5.77062716 2.44614374 7.23435228 4.75119457 8.6875 7.375 C9.09033203 8.07367188 9.49316406 8.77234375 9.90820312 9.4921875 C11.3288643 11.96704114 12.7236065 14.447213 14 17 C14.33 11.72 14.66 6.44 15 1 C15.66 1 16.32 1 17 1 C17 7.93 17 14.86 17 22 C11.89381648 20.72345412 10.79978117 18.18575104 8.25 13.9375 C7.83878906 13.27427734 7.42757812 12.61105469 7.00390625 11.92773438 C5.99175664 10.29181814 4.99442493 8.64675068 4 7 C3.67 11.95 3.34 16.9 3 22 C2.01 22 1.02 22 0 22 C0 14.74 0 7.48 0 0 Z " fill="#343333" transform="translate(208,322)"/>
<path d="M0 0 C2.5 1.3125 2.5 1.3125 4 3 C4 3.99 4 4.98 4 6 C0.125 4.125 0.125 4.125 -1 3 C-3.33297433 2.95907063 -5.66705225 2.95758277 -8 3 C-7.67 4.65 -7.34 6.3 -7 8 C-6.30132812 8.19335938 -5.60265625 8.38671875 -4.8828125 8.5859375 C-3.97273437 8.84632813 -3.06265625 9.10671875 -2.125 9.375 C-1.22007812 9.63023437 -0.31515625 9.88546875 0.6171875 10.1484375 C3 11 3 11 5 13 C5.55477054 18.21484303 5.55477054 18.21484303 3.82421875 20.6640625 C1.32743841 22.49253975 -0.42990964 22.43337353 -3.5 22.4375 C-4.4590625 22.45683594 -5.418125 22.47617187 -6.40625 22.49609375 C-9 22 -9 22 -10.84375 20.16015625 C-12 18 -12 18 -12 15 C-11.01 15 -10.02 15 -9 15 C-8.34 16.32 -7.68 17.64 -7 19 C-4.69 19 -2.38 19 0 19 C0.66 17.35 1.32 15.7 2 14 C0.96939453 13.83564453 0.96939453 13.83564453 -0.08203125 13.66796875 C-0.98308594 13.50941406 -1.88414062 13.35085938 -2.8125 13.1875 C-3.70582031 13.03667969 -4.59914062 12.88585937 -5.51953125 12.73046875 C-8.22819466 11.93279937 -9.32790536 11.24943025 -11 9 C-11.38601984 5.91184125 -11.47901666 3.89815624 -10 1.125 C-6.79670637 -0.67685267 -3.53627477 -0.53364307 0 0 Z " fill="#363636" transform="translate(193,322)"/>
<path d="M0 0 C3 1.8125 3 1.8125 5 4 C5 4.99 5 5.98 5 7 C4.01 7 3.02 7 2 7 C1.34 6.01 0.68 5.02 0 4 C-3.63405527 3.53748387 -5.95597413 3.24960641 -9 5.4375 C-10.51083733 9.30902067 -10.02453895 13.00969039 -9 17 C-7.11625538 19.28056299 -7.11625538 19.28056299 -4.0625 19.4375 C-2.5465625 19.2209375 -2.5465625 19.2209375 -1 19 C0.71711243 16.55503957 0.71711243 16.55503957 2 14 C2.99 14 3.98 14 5 14 C4.49943483 17.70418228 3.99308478 19.68896773 1 22 C-2.39045369 22.67922278 -5.59958206 22.60761566 -9 22 C-12.72517527 18.63825646 -13.88135075 15.60176494 -14.25 10.625 C-13.98284578 6.7512638 -13.34494559 5.03974428 -11 2 C-7.31028744 -0.45980837 -4.28401332 -0.69177647 0 0 Z " fill="#363535" transform="translate(242,322)"/>
<path d="M0 0 C1.9375 1.125 1.9375 1.125 3 3 C3.5625 5.875 3.5625 5.875 3 9 C0.25 11.6875 0.25 11.6875 -3 14 C-4.32 14.99 -5.64 15.98 -7 17 C-3.7 17.33 -0.4 17.66 3 18 C3 18.99 3 19.98 3 21 C-1.62 21 -6.24 21 -11 21 C-10 15 -10 15 -8.44140625 13.3203125 C-7.82136719 12.92585938 -7.20132813 12.53140625 -6.5625 12.125 C-5.94503906 11.71507812 -5.32757813 11.30515625 -4.69140625 10.8828125 C-3 10 -3 10 -1 10 C-1 8.02 -1 6.04 -1 4 C-2.65 3.67 -4.3 3.34 -6 3 C-6.66 4.32 -7.32 5.64 -8 7 C-8.99 7 -9.98 7 -11 7 C-10.6875 4.625 -10.6875 4.625 -10 2 C-6.30513897 -0.46324069 -4.36706908 -0.38991688 0 0 Z " fill="#333333" transform="translate(215,353)"/>
<path d="M0 0 C4.875 0.875 4.875 0.875 6 2 C6.12537741 4.14307896 6.17574364 6.29078886 6.1875 8.4375 C6.20167969 9.61183594 6.21585938 10.78617187 6.23046875 11.99609375 C6 15 6 15 4 17 C1.4375 16.75 1.4375 16.75 -1 16 C-2.29376578 13.41246844 -2.16832397 11.45041015 -2.1875 8.5625 C-2.20167969 7.59441406 -2.21585938 6.62632812 -2.23046875 5.62890625 C-2 3 -2 3 0 0 Z " fill="#EEECE8" transform="translate(241,355)"/>
<path d="M0 0 C4.875 0.875 4.875 0.875 6 2 C6.12537741 4.14307896 6.17574364 6.29078886 6.1875 8.4375 C6.20167969 9.61183594 6.21585938 10.78617187 6.23046875 11.99609375 C6 15 6 15 4 17 C1.4375 16.75 1.4375 16.75 -1 16 C-2.29376578 13.41246844 -2.16832397 11.45041015 -2.1875 8.5625 C-2.20167969 7.59441406 -2.21585938 6.62632812 -2.23046875 5.62890625 C-2 3 -2 3 0 0 Z " fill="#EEECE8" transform="translate(225,355)"/>
<path d="M0 0 C0.66 0 1.32 0 2 0 C2.32321868 5.49471751 2.5464527 9.46054055 -1 14 C-2 15 -2 15 -5.375 15.25 C-9 15 -9 15 -10.9375 13.625 C-12 12 -12 12 -12 10 C-11.01 10 -10.02 10 -9 10 C-8.67 10.66 -8.34 11.32 -8 12 C-6.35 12 -4.7 12 -3 12 C-2.34 10.35 -1.68 8.7 -1 7 C-2.65 7 -4.3 7 -6 7 C-5.195625 6.21625 -4.39125 5.4325 -3.5625 4.625 C-1.01309583 2.28017144 -1.01309583 2.28017144 0 0 Z " fill="#2E2E2D" transform="translate(264,359)"/>
<path d="M0 0 C0.99 0 1.98 0 3 0 C3 7.26 3 14.52 3 22 C2.01 22 1.02 22 0 22 C0 14.74 0 7.48 0 0 Z " fill="#323232" transform="translate(201,322)"/>
<path d="M0 0 C0.515625 0.804375 1.03125 1.60875 1.5625 2.4375 C4.65240426 5.68586089 6.6123498 5.75624166 11 6 C11.66 6 12.32 6 13 6 C12.125 10.875 12.125 10.875 11 12 C9.33382885 12.04063832 7.66611905 12.042721 6 12 C5.67 11.01 5.34 10.02 5 9 C3.35 9 1.7 9 0 9 C0 6.03 0 3.06 0 0 Z " fill="#E6E4E1" transform="translate(250,360)"/>
<path d="M0 0 C4.55555556 0.55555556 4.55555556 0.55555556 6 2 C6.125 5 6.125 5 6 8 C5 9 5 9 2 9.125 C-1 9 -1 9 -2 8 C-2.1875 5.0625 -2.1875 5.0625 -2 2 C-1.34 1.34 -0.68 0.68 0 0 Z " fill="#EBE9E5" transform="translate(257,355)"/>
<path d="M0 0 C0.66 0 1.32 0 2 0 C4.28219901 3.42329851 4.29741163 4.84137668 4.3125 8.875 C4.32925781 9.90367187 4.34601563 10.93234375 4.36328125 11.9921875 C3.94967279 15.41668761 3.10492523 17.2831779 1 20 C-2.1875 20.8125 -2.1875 20.8125 -5 21 C-4.175 20.443125 -3.35 19.88625 -2.5 19.3125 C-0.27663494 17.15176494 -0.00297656 16.02797969 0.33203125 12.87890625 C0.31361103 9.57431898 0.19581736 6.2984347 0 3 C0 2.01 0 1.02 0 0 Z " fill="#3B3B3A" transform="translate(246,354)"/>
<path d="M0 0 C0.66 0 1.32 0 2 0 C4.28219901 3.42329851 4.29741163 4.84137668 4.3125 8.875 C4.32925781 9.90367187 4.34601563 10.93234375 4.36328125 11.9921875 C3.94967279 15.41668761 3.10492523 17.2831779 1 20 C-2.1875 20.8125 -2.1875 20.8125 -5 21 C-4.175 20.443125 -3.35 19.88625 -2.5 19.3125 C-0.27663494 17.15176494 -0.00297656 16.02797969 0.33203125 12.87890625 C0.31361103 9.57431898 0.19581736 6.2984347 0 3 C0 2.01 0 1.02 0 0 Z " fill="#3B3B3A" transform="translate(230,354)"/>
<path d="M0 0 C0.66 0 1.32 0 2 0 C2 6.93 2 13.86 2 21 C0.68 20.67 -0.64 20.34 -2 20 C-3.25 17.4375 -3.25 17.4375 -4 15 C-3.01 15.33 -2.02 15.66 -1 16 C-0.67 10.72 -0.34 5.44 0 0 Z " fill="#232323" transform="translate(223,323)"/>
<path d="M0 0 C0 0.66 0 1.32 0 2 C-1.65 2.33 -3.3 2.66 -5 3 C-5.66 6.3 -6.32 9.6 -7 13 C-10 9 -10 9 -9.875 5.9375 C-8.13714425 0.10326999 -5.91026907 -0.39401794 0 0 Z " fill="#353534" transform="translate(246,353)"/>
<path d="M0 0 C0 0.66 0 1.32 0 2 C-1.65 2.33 -3.3 2.66 -5 3 C-5.66 6.3 -6.32 9.6 -7 13 C-10 9 -10 9 -9.875 5.9375 C-8.13714425 0.10326999 -5.91026907 -0.39401794 0 0 Z " fill="#353534" transform="translate(230,353)"/>
<path d="M0 0 C0.99 0 1.98 0 3 0 C3.185625 0.639375 3.37125 1.27875 3.5625 1.9375 C4.036875 2.618125 4.51125 3.29875 5 4 C7.32156597 4.40729228 9.6568787 4.74438677 12 5 C12.33 5.66 12.66 6.32 13 7 C11.3973218 7.10824843 9.79254252 7.18570645 8.1875 7.25 C7.29417969 7.29640625 6.40085938 7.3428125 5.48046875 7.390625 C3 7 3 7 1.17578125 5.171875 C0 3 0 3 0 0 Z " fill="#2D2D2D" transform="translate(181,337)"/>
<path d="M0 0 C3.81365679 -0.35475877 5.58442458 -0.2619932 8.875 1.8125 C11 4 11 4 11 7 C10.01 7 9.02 7 8 7 C7.566875 6.360625 7.13375 5.72125 6.6875 5.0625 C5.08674484 2.67933367 5.08674484 2.67933367 1.8125 2.25 C0.884375 2.1675 -0.04375 2.085 -1 2 C-0.67 1.34 -0.34 0.68 0 0 Z " fill="#313131" transform="translate(236,322)"/>
<path d="M0 0 C0.66 0 1.32 0 2 0 C2 0.66 2 1.32 2 2 C5.96 2 9.92 2 14 2 C14 2.66 14 3.32 14 4 C9.38 4 4.76 4 0 4 C0 2.68 0 1.36 0 0 Z " fill="#232323" transform="translate(204,370)"/>
<path d="M0 0 C0.66 0.33 1.32 0.66 2 1 C0.68 2.65 -0.64 4.3 -2 6 C1.3 6.33 4.6 6.66 8 7 C8 7.33 8 7.66 8 8 C4.04 8 0.08 8 -4 8 C-4.33 6.68 -4.66 5.36 -5 4 C-3.35 2.68 -1.7 1.36 0 0 Z " fill="#565554" transform="translate(210,364)"/>
<path d="M0 0 C1.50559539 1.96382007 2.89131683 3.78263366 4 6 C6.52733235 6.65555119 6.52733235 6.65555119 9 7 C9 7.99 9 8.98 9 10 C5.625 9.6875 5.625 9.6875 2 9 C-0.29013653 5.5647952 -0.17842973 4.014669 0 0 Z " fill="#434242" transform="translate(252,357)"/>
<path d="M0 0 C3.32820054 -0.22692276 5.41801336 -0.32162419 8.375 1.3125 C10 3 10 3 10 6 C9.484375 5.71125 8.96875 5.4225 8.4375 5.125 C5.37643275 3.71219973 2.25055082 2.8751483 -1 2 C-0.67 1.34 -0.34 0.68 0 0 Z " fill="#292929" transform="translate(187,322)"/>
<path d="M0 0 C3.6875 0.875 3.6875 0.875 7 2 C7 2.33 7 2.66 7 3 C3.01939223 4.17076699 -0.91621717 5.25749403 -5 6 C-3.63016497 2.83884224 -3.0109362 2.0072908 0 0 Z " fill="#4E4D4D" transform="translate(234,322)"/>
<path d="M0 0 C0.66 0.33 1.32 0.66 2 1 C1.01 2.98 0.02 4.96 -1 7 C-1.99 7 -2.98 7 -4 7 C-3.6875 4.625 -3.6875 4.625 -3 2 C-2.01 1.34 -1.02 0.68 0 0 Z " fill="#393938" transform="translate(208,353)"/>
<path d="M0 0 C0.99 0 1.98 0 3 0 C3.33 0.66 3.66 1.32 4 2 C6.01669827 3.13350534 6.01669827 3.13350534 8 4 C5.6875 4.6875 5.6875 4.6875 3 5 C1.1875 3.6875 1.1875 3.6875 0 2 C0 1.34 0 0.68 0 0 Z " fill="#353534" transform="translate(252,369)"/>
<path d="M0 0 C0.33 0.99 0.66 1.98 1 3 C-0.75 4.5625 -0.75 4.5625 -3 6 C-5.25 5.6875 -5.25 5.6875 -7 5 C-6.01 4.67 -5.02 4.34 -4 4 C-2.62804426 2.70644173 -1.28817344 1.37701298 0 0 Z " fill="#4A4949" transform="translate(248,369)"/>
<path d="M0 0 C0.33 0.99 0.66 1.98 1 3 C-0.75 4.5625 -0.75 4.5625 -3 6 C-5.25 5.6875 -5.25 5.6875 -7 5 C-6.01 4.67 -5.02 4.34 -4 4 C-2.62804426 2.70644173 -1.28817344 1.37701298 0 0 Z " fill="#4A4949" transform="translate(232,369)"/>
<path d="M0 0 C0.99 0.33 1.98 0.66 3 1 C3.6875 3.0625 3.6875 3.0625 4 5 C3.34 5 2.68 5 2 5 C1.67 5.66 1.34 6.32 1 7 C0.34 5.02 -0.32 3.04 -1 1 C-0.67 0.67 -0.34 0.34 0 0 Z " fill="#3C3B3B" transform="translate(262,354)"/>
</svg>
