<?xml version="1.0" encoding="UTF-8"?>
<svg version="1.1" xmlns="http://www.w3.org/2000/svg" width="820" height="200">
<path d="M0 0 C4.23282201 2.24390564 7.37904029 5.46131282 9 10 C9.62533787 17.32426982 7.588343 23.02662857 5.1328125 29.84570312 C3.26743016 35.30416718 2.35756921 40.21889505 3 46 C3.33 46.66 3.66 47.32 4 48 C14.61340009 49.51620001 24.00563907 43.236391 32.67578125 37.6875 C33.2490918 37.32076172 33.82240234 36.95402344 34.41308594 36.57617188 C35.96791541 35.56171239 37.50232455 34.51615142 39.03515625 33.46875 C42.57308459 31.71610039 45.10158469 31.72745161 49 32 C49.26167969 31.13117188 49.52335938 30.26234375 49.79296875 29.3671875 C51.00305173 25.99148676 52.44492306 23.18103499 54.3125 20.125 C54.88613281 19.15820312 55.45976563 18.19140625 56.05078125 17.1953125 C58 15 58 15 60.73046875 14.6796875 C61.47941406 14.78539063 62.22835937 14.89109375 63 15 C64 18 64 18 63.00390625 20.48046875 C62.52824219 21.37378906 62.05257812 22.26710938 61.5625 23.1875 C60.85287109 24.53908203 60.85287109 24.53908203 60.12890625 25.91796875 C59.75636719 26.60503906 59.38382813 27.29210937 59 28 C59.33 28.33 59.66 28.66 60 29 C61.051875 28.11248047 61.051875 28.11248047 62.125 27.20703125 C74.85086939 16.60790362 74.85086939 16.60790362 79 15 C81.22265625 15.3828125 81.22265625 15.3828125 83 16 C83.2187392 21.03100152 82.61448328 25.38142023 81.4375 30.27734375 C80.85658615 33.89249512 80.93788813 37.33928141 81 41 C82.3203007 39.98438407 83.64056775 38.96872437 84.96069336 37.95288086 C86.12892165 37.05453593 87.29772055 36.15693262 88.46704102 35.26000977 C91.41333354 32.99849931 94.3515762 30.72873374 97.265625 28.42578125 C102.86379926 24.01879939 108.55643944 19.80732802 114.5 15.875 C115.07548584 15.4843335 115.65097168 15.09366699 116.24389648 14.69116211 C119.59385303 12.52690027 121.99488308 11.33718135 126 12 C128 14 128 14 128.3515625 17.19140625 C127.95466499 21.49112924 126.55017622 24.32314257 124.375 27.9375 C117.94250317 39.32545486 113.43703611 50.91801612 112 64 C108.71404637 63.43345627 107.10434889 62.59642345 105 60 C103.56130451 53.41920838 105.91595964 47.76135244 108.75 41.9375 C109.09804688 41.18662109 109.44609375 40.43574219 109.8046875 39.66210938 C111.54963996 35.92338717 113.38655637 32.23920663 115.265625 28.56640625 C117.14577885 25.36119524 117.14577885 25.36119524 117 23 C105.99447925 30.20176934 96.28367972 38.93010226 86.625 47.8125 C85.65820312 48.70066406 84.69140625 49.58882812 83.6953125 50.50390625 C81.99081629 52.08241796 80.29664751 53.6722205 78.6171875 55.27734375 C77.56917969 56.25380859 77.56917969 56.25380859 76.5 57.25 C75.9121875 57.81203125 75.324375 58.3740625 74.71875 58.953125 C73 60 73 60 70.84375 59.734375 C69 59 69 59 68 58 C67.622511 51.19845706 68.61108747 45.57159046 70.5 39.0625 C70.97064714 37.38725058 71.43948963 35.71149277 71.90625 34.03515625 C72.22045898 32.94279663 72.22045898 32.94279663 72.54101562 31.82836914 C73.08116006 29.9908813 73.08116006 29.9908813 73 28 C64.20127397 33.15047378 58.7924319 41.46119579 52.99536133 49.63208008 C50.25617818 53.45462332 47.41829444 56.7676128 44 60 C43.67 60.33 43.34 60.66 43 61 C41.00041636 61.04080783 38.99954746 61.04254356 37 61 C35.92019524 57.78249481 36.02266094 56.17877268 37.43359375 53.109375 C37.75263672 52.40039062 38.07167969 51.69140625 38.40039062 50.9609375 C38.74263672 50.23132813 39.08488281 49.50171875 39.4375 48.75 C39.77587891 48.00492188 40.11425781 47.25984375 40.46289062 46.4921875 C41.29826304 44.65672135 42.14777967 42.82770445 43 41 C42.32195312 41.44730469 41.64390625 41.89460938 40.9453125 42.35546875 C19.72999933 56.13660708 19.72999933 56.13660708 7 55 C1.46343603 53.66538571 -1.81059683 51.91699656 -5 47 C-7.95911769 48.09596951 -9.13272255 49.16785499 -11.125 51.6875 C-15.59454355 57.336892 -22.20698106 61.69147812 -29 64 C-34.24153573 64.47650325 -37.54757559 63.83336099 -42 61 C-45.89605471 56.87203728 -45.54818024 53.01817985 -45.4140625 47.57421875 C-44.71756735 41.56202008 -42.56990383 36.4389499 -40 31 C-39.55398438 30.05125 -39.10796875 29.1025 -38.6484375 28.125 C-30.98093738 13.04701093 -18.47873449 -2.80200418 0 0 Z M-9.3125 5.5 C-10.03050781 5.9846875 -10.74851562 6.469375 -11.48828125 6.96875 C-17.85805445 12.12004403 -22.66027137 17.9082134 -27.125 24.75 C-27.64489502 25.53842285 -28.16479004 26.3268457 -28.70043945 27.13916016 C-34.97144962 36.81262174 -39.37503805 45.37382057 -39 57 C-38.67 57.66 -38.34 58.32 -38 59 C-32.20603588 59.10729563 -29.41377338 57.93029856 -25.0625 54.0625 C-23.35550832 52.39471946 -21.66793296 50.70684274 -20 49 C-19.22269531 48.25492188 -18.44539063 47.50984375 -17.64453125 46.7421875 C-8.72515854 37.68464894 -1.59408777 24.69551237 -0.8046875 11.8125 C-0.82789063 10.884375 -0.85109375 9.95625 -0.875 9 C-0.89304687 8.05125 -0.91109375 7.1025 -0.9296875 6.125 C-0.95289063 5.42375 -0.97609375 4.7225 -1 4 C-4.68840242 2.60123791 -6.13887105 3.29029743 -9.3125 5.5 Z " fill="#010101" transform="translate(508,61)"/>
<path d="M0 0 C3.57283411 2.82849367 5.61568472 5.94085511 6.375 10.39453125 C6.6398367 18.14100474 4.82955976 24.39334092 2.015625 31.51611328 C-0.00125881 36.84594181 -0.22023471 40.40917299 0.96875 46.01171875 C2.12741921 47.3780803 2.12741921 47.3780803 5.28125 47.38671875 C15.7764622 47.14566264 24.7495874 40.49283513 33.09350586 34.75854492 C38.53723048 31.06347615 38.53723048 31.06347615 41.671875 30.6875 C44.57131687 29.83443292 44.88700173 28.9562348 46.42578125 26.4140625 C47.22828704 24.93506423 48.01291666 23.44625425 48.78125 21.94921875 C49.18794922 21.19060547 49.59464844 20.43199219 50.01367188 19.65039062 C51.01410649 17.77898941 51.99349392 15.89636394 52.96875 14.01171875 C54.28875 14.01171875 55.60875 14.01171875 56.96875 14.01171875 C57.96875 15.01171875 57.96875 15.01171875 58.15625 18.26171875 C57.97976911 21.79133665 57.35447372 23.83496081 55.96875 27.01171875 C56.98453125 26.35945313 58.0003125 25.7071875 59.046875 25.03515625 C83.0327803 9.74293457 83.0327803 9.74293457 94.96875 11.01171875 C97.60461125 15.56433798 97.03821799 18.99754025 95.96875 24.01171875 C94.88839848 27.41050872 93.55372871 30.66983586 92.15625 33.94921875 C91.81271484 34.77873047 91.46917969 35.60824219 91.11523438 36.46289062 C90.42303158 38.13430712 89.72724638 39.80424462 89.02783203 41.47265625 C87.93065683 44.10304401 86.8519094 46.73994249 85.78515625 49.3828125 C85.46619385 50.17228271 85.14723145 50.96175293 84.81860352 51.77514648 C83.66418907 54.81323634 82.78880273 57.86818327 81.96875 61.01171875 C80.31875 61.34171875 78.66875 61.67171875 76.96875 62.01171875 C74.6703845 51.83540309 80.12149693 42.44584472 84.52563477 33.4921875 C87.09910698 28.1072585 88.36644747 22.92411707 88.96875 17.01171875 C75.83096855 17.70318093 65.55872853 30.32603934 56.9296875 39.10546875 C56.23182129 39.8133252 55.53395508 40.52118164 54.81494141 41.25048828 C53.45220394 42.63925521 52.09722965 44.03569768 50.75146484 45.44091797 C46.7251426 49.56332406 42.42832209 53.88411237 36.96875 56.01171875 C34.73339844 55.63427734 34.73339844 55.63427734 32.96875 55.01171875 C33.57620397 50.15208696 35.69633967 46.27116695 37.96875 42.01171875 C37.09734375 42.5428125 36.2259375 43.07390625 35.328125 43.62109375 C24.58006257 50.04654935 14.21648707 55.76559992 1.34375 53.32421875 C-2.481794 51.8365072 -4.43390321 50.16001789 -7.03125 47.01171875 C-7.03125 46.35171875 -7.03125 45.69171875 -7.03125 45.01171875 C-7.75828125 45.64787109 -7.75828125 45.64787109 -8.5 46.296875 C-9.91473256 47.53476599 -11.33156108 48.77026395 -12.75 50.00390625 C-14.20332044 51.28302732 -15.64260842 52.57840097 -17.0625 53.89453125 C-22.36336472 58.75365724 -27.65812209 63.06758683 -35.09375 63.51171875 C-39.90018033 62.90137839 -42.11705244 61.82994099 -46.03125 59.01171875 C-49.17074634 53.93619967 -48.5920717 48.60761799 -47.37890625 42.9921875 C-43.84125632 30.43580769 -37.66233234 19.73881155 -29.03125 10.01171875 C-28.4434375 9.34140625 -27.855625 8.67109375 -27.25 7.98046875 C-20.36936695 0.59942602 -10.10797192 -4.91791711 0 0 Z M-7.03125 2.01171875 C-23.64665223 10.46516901 -35.26274042 28.70619 -41.03125 46.01171875 C-41.78325556 49.20436512 -42.03125 51.69887642 -42.03125 55.01171875 C-41.37125 56.00171875 -40.71125 56.99171875 -40.03125 58.01171875 C-30.98538334 57.8192535 -25.44826008 51.68602272 -19.46875 45.44921875 C-8.368726 32.6968269 -3.38297397 19.89090577 -4.03125 3.01171875 C-5.02125 2.68171875 -6.01125 2.35171875 -7.03125 2.01171875 Z " fill="#010101" transform="translate(297.03125,61.98828125)"/>
<path d="M0 0 C2.13745922 0.25146579 3.45925779 0.45925779 5 2 C4.88356313 8.66185244 2.35872779 11.50261591 -2.125 15.9375 C-3.32097451 17.1712336 -4.51629314 18.40560336 -5.7109375 19.640625 C-6.28424805 20.22392578 -6.85755859 20.80722656 -7.44824219 21.40820312 C-14.52330598 28.66582049 -20.75592779 36.74580729 -27.1171875 44.62109375 C-61.21792387 86.65368639 -61.21792387 86.65368639 -73.2421875 88.30859375 C-75.92318352 88.43985913 -78.34781539 88.42555312 -81 88 C-88.19082897 81.36231172 -88.64378565 67.88289134 -89.12573242 58.57055664 C-90.18203057 24.712369 -90.18203057 24.712369 -81 14 C-79.34518455 13.61208931 -77.67754772 13.27335421 -76 13 C-76.59692979 24.09751279 -77.80236038 35.0172993 -79.34594727 46.02050781 C-82.0771573 63.70840936 -82.0771573 63.70840936 -79 81 C-69.84994467 79.4924394 -62.15118684 69.35660681 -56 63 C-53.09918528 60.08420689 -50.17991297 57.18738884 -47.2578125 54.29296875 C-45.88015605 52.9245318 -44.50255306 51.55604103 -43.125 50.1875 C-42.44308594 49.51396484 -41.76117188 48.84042969 -41.05859375 48.14648438 C-36.49051521 43.60015859 -32.19391301 38.89163567 -28 34 C-27.0504863 32.91708486 -26.10001853 31.83500524 -25.1484375 30.75390625 C-18.89543513 23.58137745 -12.98603691 16.21154121 -7.27685547 8.59790039 C-6.7613916 7.91203857 -6.24592773 7.22617676 -5.71484375 6.51953125 C-5.26230225 5.91214111 -4.80976074 5.30475098 -4.34350586 4.67895508 C-2.97944206 2.97430912 -1.65334215 1.42877674 0 0 Z " fill="#010101" transform="translate(272,35)"/>
<path d="M0 0 C2.8992226 0.46761655 3.86675182 0.86675182 6 3 C5.89973677 10.74340624 3.2719253 16.42685129 -0.1875 23.25 C-0.68419189 24.26779541 -1.18088379 25.28559082 -1.69262695 26.33422852 C-3.74563943 30.53715379 -5.82428929 34.71664532 -8.0625 38.82421875 C-12.35310222 47.04443502 -13.56620555 54.80617004 -12 64 C-9.95656942 67.11731856 -7.7046612 69.44165904 -4.75 71.6875 C-3.38875 72.8321875 -3.38875 72.8321875 -2 74 C-2 74.66 -2 75.32 -2 76 C-7.74624746 76.4596998 -10.55130726 75.67500704 -15 72 C-19.51166691 67.45094359 -22 63.48237827 -22 57 C-22.48766846 57.34256836 -22.97533691 57.68513672 -23.4777832 58.03808594 C-46.63474734 74.19423427 -46.63474734 74.19423427 -58.125 72.65234375 C-60.41689633 71.85495482 -61.47547448 70.87142355 -63 69 C-64.94289045 63.31010653 -63.21418742 58.34960611 -61 53 C-55.8968351 43.26912034 -48.40595154 36.55325175 -38 33 C-30.93684066 31.19664017 -23.09860765 31.50555629 -16 33 C-15.59793335 31.70799683 -15.59793335 31.70799683 -15.18774414 30.38989258 C-14.00712418 27.02033283 -12.59701379 23.95109555 -10.99609375 20.76171875 C-10.42052734 19.61251953 -9.84496094 18.46332031 -9.25195312 17.27929688 C-8.95426025 16.69011475 -8.65656738 16.10093262 -8.34985352 15.49389648 C-7.43233664 13.6772769 -6.52138823 11.85747416 -5.61132812 10.03710938 C-1.14038584 1.14038584 -1.14038584 1.14038584 0 0 Z M-52 50 C-55.66338387 55.45157916 -56.46005206 59.90869547 -55.359375 66.34765625 C-55.24078125 66.89292969 -55.1221875 67.43820313 -55 68 C-44.25467069 67.44895747 -33.44082165 56.76542293 -26.48828125 49.3046875 C-23.53258315 45.80154467 -23.53258315 45.80154467 -21 42 C-21.495 40.515 -21.495 40.515 -22 39 C-33.33179132 35.22273623 -44.66085714 41.4300692 -52 50 Z " fill="#010101" transform="translate(459,48)"/>
</svg>
